<?xml version="1.0" encoding="UTF-8"?><svg id="Capa_2" xmlns="http://www.w3.org/2000/svg" viewBox="0 0 1042.11 343.57"><defs><style>.cls-1{fill:#333;stroke-width:0px;}</style></defs><g id="Portada"><path class="cls-1" d="m736.76,292.99v-30.82h2.29l12.63,27.27,12.5-27.27h2.38v30.78h-2.42v-25.11l-11.47,25.15h-2.01l-11.49-25.15v25.15h-2.4Z"/><path class="cls-1" d="m772.54,292.99v-30.82h19.05v2.4h-16.59v11.71h14.02v2.4h-14.02v11.92h16.59v2.4h-19.05Z"/><path class="cls-1" d="m797.16,292.99v-30.82h2.46v28.43h14.98v2.4h-17.44Z"/><path class="cls-1" d="m816.1,292.99l10.92-30.82h3.06l10.92,30.82h-2.61l-10.49-29.54h1.24l-10.42,29.54h-2.61Zm4.52-7.75v-2.33h15.84v2.33h-15.84Z"/><path class="cls-1" d="m844.85,292.99v-30.82h2.48l17.85,26.43v-26.43h2.48v30.82h-2.48l-17.85-26.48v26.48h-2.48Z"/><path class="cls-1" d="m874.09,292.99v-30.82h2.46v30.82h-2.46Z"/><path class="cls-1" d="m882.97,292.99v-30.82h19.05v2.4h-16.59v11.71h14.02v2.4h-14.02v11.92h16.59v2.4h-19.05Z"/><path class="cls-1" d="m916.15,292.99v-30.82h2.46v28.43h14.98v2.4h-17.44Z"/><path class="cls-1" d="m949.13,293.63c-2.31,0-4.36-.48-6.15-1.44s-3.2-2.32-4.22-4.07c-1.02-1.75-1.53-3.8-1.53-6.15v-19.8h2.48v19.29c0,1.76.3,3.26.89,4.51s1.36,2.27,2.31,3.05c.95.79,1.97,1.36,3.06,1.73,1.09.37,2.14.56,3.16.56s2.07-.19,3.17-.56c1.1-.37,2.12-.95,3.06-1.73.94-.78,1.71-1.8,2.3-3.05.59-1.25.89-2.75.89-4.51v-19.29h2.48v19.8c0,2.34-.51,4.38-1.53,6.13-1.02,1.75-2.43,3.11-4.22,4.08-1.79.97-3.84,1.46-6.15,1.46Z"/><path class="cls-1" d="m979.33,293.63c-3.07,0-5.64-.68-7.73-2.04s-3.65-3.25-4.71-5.66-1.58-5.19-1.58-8.35.53-5.94,1.58-8.35,2.63-4.3,4.71-5.66c2.08-1.36,4.66-2.04,7.73-2.04,3.58,0,6.49.93,8.72,2.78,2.23,1.85,3.75,4.34,4.55,7.45l-2.55.62c-.66-2.58-1.88-4.63-3.67-6.15-1.79-1.52-4.14-2.28-7.05-2.28-2.53,0-4.63.58-6.3,1.73s-2.94,2.76-3.79,4.82c-.85,2.06-1.28,4.42-1.29,7.08-.03,2.67.38,5.03,1.23,7.07.85,2.05,2.12,3.65,3.82,4.82,1.7,1.16,3.81,1.74,6.34,1.74,2.91,0,5.26-.76,7.05-2.29,1.79-1.53,3.01-3.57,3.67-6.14l2.55.62c-.8,3.11-2.32,5.59-4.55,7.45-2.23,1.86-5.14,2.78-8.72,2.78Z"/><path class="cls-1" d="m997.31,292.99v-30.82h19.05v2.4h-16.59v11.71h14.02v2.4h-14.02v11.92h16.59v2.4h-19.05Z"/><path class="cls-1" d="m1028.78,292.99v-13.01l-10.27-17.81h2.85l8.67,14.98,8.65-14.98h2.85l-10.25,17.81v13.01h-2.48Z"/><path class="cls-1" d="m669.05,342.93v-30.82h9.18c.36,0,.94,0,1.74.02s1.57.08,2.3.19c2.31.31,4.23,1.18,5.76,2.6,1.53,1.42,2.67,3.22,3.42,5.39.76,2.18,1.13,4.58,1.13,7.2s-.38,5.05-1.13,7.22c-.76,2.18-1.9,3.97-3.42,5.38-1.53,1.41-3.45,2.28-5.76,2.59-.73.1-1.5.16-2.32.18-.82.02-1.4.03-1.72.03h-9.18Zm2.59-2.42h6.59c.64,0,1.31-.02,1.99-.05s1.27-.1,1.76-.18c1.91-.34,3.45-1.1,4.62-2.28s2.02-2.67,2.56-4.47.8-3.81.8-6-.27-4.22-.81-6.03c-.54-1.8-1.4-3.3-2.57-4.47-1.17-1.18-2.7-1.93-4.6-2.26-.49-.09-1.08-.15-1.79-.18-.71-.04-1.36-.05-1.96-.05h-6.59v25.99Z"/><path class="cls-1" d="m697.8,342.93v-30.82h2.46v30.82h-2.46Z"/><path class="cls-1" d="m717.15,343.57c-2.11,0-4.01-.35-5.7-1.05-1.69-.7-3.09-1.69-4.2-2.98-1.11-1.28-1.84-2.81-2.22-4.58l2.53-.43c.53,2.05,1.66,3.67,3.39,4.86,1.73,1.18,3.82,1.78,6.26,1.78,1.66,0,3.12-.26,4.39-.79,1.27-.53,2.26-1.27,2.98-2.24.71-.96,1.07-2.09,1.07-3.37,0-.93-.17-1.71-.5-2.33-.34-.63-.77-1.15-1.3-1.55s-1.09-.73-1.69-.98c-.6-.25-1.16-.45-1.69-.61l-7.75-2.31c-1.03-.3-1.94-.67-2.75-1.12s-1.48-.97-2.03-1.56c-.55-.59-.97-1.27-1.26-2.02-.29-.76-.44-1.6-.44-2.53,0-1.66.44-3.1,1.33-4.35.88-1.24,2.1-2.21,3.65-2.9,1.55-.69,3.33-1.04,5.34-1.04,2.03.01,3.85.39,5.46,1.12,1.61.74,2.94,1.77,3.97,3.11,1.03,1.34,1.7,2.93,2,4.77l-2.55.45c-.2-1.41-.71-2.65-1.53-3.7-.82-1.06-1.87-1.88-3.14-2.46-1.27-.58-2.68-.88-4.24-.88-1.5-.01-2.82.24-3.97.75-1.15.51-2.05,1.21-2.71,2.08-.66.87-.98,1.85-.98,2.95s.31,2.05.93,2.73c.62.68,1.38,1.21,2.29,1.59s1.77.7,2.6.94l6.21,1.84c.58.17,1.28.41,2.1.73s1.61.76,2.4,1.34c.78.58,1.44,1.34,1.96,2.29.52.95.78,2.14.78,3.56s-.26,2.63-.79,3.72c-.53,1.1-1.28,2.03-2.27,2.79-.98.76-2.15,1.35-3.49,1.76-1.34.41-2.82.61-4.43.61Z"/><path class="cls-1" d="m732.48,342.93v-30.82h19.05v2.4h-16.59v11.71h14.02v2.4h-14.02v11.92h16.59v2.4h-19.05Z"/><path class="cls-1" d="m756.66,342.93v-30.82h2.48l17.85,26.43v-26.43h2.48v30.82h-2.48l-17.85-26.48v26.48h-2.48Zm15.09-34.59c-.57,0-1.13-.11-1.69-.34-.56-.23-1.1-.49-1.62-.78s-1.02-.55-1.5-.78c-.48-.23-.93-.34-1.36-.34-.57,0-.93.22-1.09.65-.16.44-.16.87,0,1.32h-1.88c-.3-1.14-.17-2.11.4-2.9.56-.79,1.41-1.19,2.54-1.19.58,0,1.16.11,1.71.34.56.23,1.1.49,1.63.78.53.29,1.03.55,1.51.78.48.23.92.34,1.34.34.53,0,.89-.21,1.08-.62.19-.41.2-.88.03-1.41h1.88c.29,1.11.15,2.08-.41,2.91-.56.83-1.41,1.24-2.57,1.24Z"/><path class="cls-1" d="m783.33,342.93l10.92-30.82h3.06l10.92,30.82h-2.61l-10.49-29.54h1.24l-10.42,29.54h-2.61Zm4.52-7.75v-2.33h15.84v2.33h-15.84Z"/><path class="cls-1" d="m812.08,342.93v-30.82h9.18c.36,0,.94,0,1.74.02s1.57.08,2.3.19c2.31.31,4.23,1.18,5.76,2.6,1.53,1.42,2.67,3.22,3.42,5.39.76,2.18,1.13,4.58,1.13,7.2s-.38,5.05-1.13,7.22c-.76,2.18-1.9,3.97-3.42,5.38-1.53,1.41-3.45,2.28-5.76,2.59-.73.1-1.5.16-2.32.18-.82.02-1.4.03-1.72.03h-9.18Zm2.59-2.42h6.59c.64,0,1.31-.02,1.99-.05s1.27-.1,1.76-.18c1.91-.34,3.45-1.1,4.62-2.28s2.02-2.67,2.56-4.47.8-3.81.8-6-.27-4.22-.81-6.03c-.54-1.8-1.4-3.3-2.57-4.47-1.17-1.18-2.7-1.93-4.6-2.26-.49-.09-1.08-.15-1.79-.18-.71-.04-1.36-.05-1.96-.05h-6.59v25.99Z"/><path class="cls-1" d="m852.7,343.57c-3.07,0-5.64-.68-7.73-2.04s-3.65-3.25-4.71-5.66-1.58-5.19-1.58-8.35.53-5.94,1.58-8.35,2.63-4.3,4.71-5.66c2.08-1.36,4.66-2.04,7.73-2.04s5.64.68,7.72,2.04c2.08,1.36,3.64,3.25,4.7,5.66,1.06,2.41,1.58,5.19,1.58,8.35s-.53,5.94-1.58,8.35c-1.06,2.41-2.62,4.3-4.7,5.66-2.08,1.36-4.65,2.04-7.72,2.04Zm0-2.42c2.53.01,4.63-.56,6.31-1.72s2.95-2.77,3.79-4.83c.84-2.05,1.26-4.42,1.26-7.08s-.42-5.03-1.26-7.08c-.84-2.05-2.1-3.66-3.79-4.82s-3.79-1.73-6.31-1.73c-2.53-.01-4.63.56-6.3,1.71s-2.94,2.77-3.78,4.83c-.84,2.06-1.28,4.43-1.31,7.1-.03,2.67.38,5.03,1.23,7.07.85,2.05,2.12,3.65,3.82,4.82,1.7,1.16,3.81,1.74,6.34,1.74Z"/><path class="cls-1" d="m870.98,342.93v-30.82h11.62c.3,0,.62.01.97.03.35.02.72.07,1.1.14,1.54.24,2.86.8,3.97,1.66,1.11.86,1.95,1.95,2.54,3.25s.88,2.74.88,4.31c0,2.27-.61,4.25-1.82,5.93-1.21,1.68-2.9,2.75-5.07,3.21l-.71.28h-11.02v12.01h-2.46Zm2.46-14.43h9.12c.26,0,.55-.01.89-.04.34-.03.67-.07,1.02-.13,1.11-.23,2.04-.68,2.78-1.36.74-.68,1.3-1.49,1.67-2.45.37-.96.56-1.96.56-3.02s-.19-2.06-.56-3.01c-.37-.95-.93-1.76-1.67-2.44-.74-.68-1.67-1.13-2.78-1.36-.34-.07-.68-.12-1.02-.15-.34-.03-.63-.04-.89-.04h-9.12v14Zm16.52,14.43l-6.08-12.54,2.29-1.16,6.68,13.7h-2.89Z"/><path class="cls-1" d="m895.43,342.93l10.92-30.82h3.06l10.92,30.82h-2.61l-10.49-29.54h1.24l-10.42,29.54h-2.61Zm4.52-7.75v-2.33h15.84v2.33h-15.84Z"/><path class="cls-1" d="m944.64,343.57c-2.31,0-4.36-.48-6.15-1.44s-3.2-2.32-4.22-4.07c-1.02-1.75-1.53-3.8-1.53-6.15v-19.8h2.48v19.29c0,1.76.3,3.26.89,4.51s1.36,2.27,2.31,3.05c.95.79,1.97,1.36,3.06,1.73,1.09.37,2.14.56,3.16.56s2.07-.19,3.17-.56c1.1-.37,2.12-.95,3.06-1.73.94-.78,1.71-1.8,2.3-3.05.59-1.25.89-2.75.89-4.51v-19.29h2.48v19.8c0,2.34-.51,4.38-1.53,6.13-1.02,1.75-2.43,3.11-4.22,4.08-1.79.97-3.84,1.46-6.15,1.46Z"/><path class="cls-1" d="m959.96,342.93l10.75-15.63-10.49-15.2h2.98l8.95,13.16,8.97-13.16h2.98l-10.49,15.2,10.75,15.63h-2.98l-9.23-13.55-9.2,13.55h-2.98Z"/><path class="cls-1" d="m997.27,312.11h2.57l-8.22,30.82h-2.57l8.22-30.82Z"/><path class="cls-1" d="m1017.3,343.57c-2.31,0-4.36-.48-6.15-1.44s-3.2-2.32-4.22-4.07c-1.02-1.75-1.53-3.8-1.53-6.15v-19.8h2.48v19.29c0,1.76.3,3.26.89,4.51s1.36,2.27,2.31,3.05c.95.79,1.97,1.36,3.06,1.73,1.09.37,2.14.56,3.16.56s2.07-.19,3.17-.56c1.1-.37,2.12-.95,3.06-1.73.94-.78,1.71-1.8,2.3-3.05.59-1.25.89-2.75.89-4.51v-19.29h2.48v19.8c0,2.34-.51,4.38-1.53,6.13-1.02,1.75-2.43,3.11-4.22,4.08-1.79.97-3.84,1.46-6.15,1.46Z"/><path class="cls-1" d="m1035.63,342.93v-30.82h2.46v30.82h-2.46Z"/><path class="cls-1" d="m228.08,140.26c8.79,0,16.12,2.12,21.98,6.37,7.88,5.66,11.83,14.51,11.83,26.53,0,8.69-2.43,16.12-7.28,22.29-5.26,6.57-12.58,9.85-21.98,9.85-4.95,0-9.45-1.19-13.49-3.56-4.04-2.37-6.42-6.44-7.13-12.21l1.36-.46c1.11,4.35,3.69,7.38,7.73,9.1,2.73,1.21,5.15,1.82,7.28,1.82,8.29,0,14.3-3.23,18.04-9.7,2.73-4.75,4.09-10.41,4.09-16.98,0-10.51-2.93-18.09-8.79-22.74-4.45-3.64-10.11-5.46-16.98-5.46-1.62,0-3.01.08-4.17.23-1.16.15-6.24.99-15.24,2.5v89.91c.1,2.73,1.11,5,3.03,6.82,1.92,1.82,4.14,2.73,6.67,2.73h1.97v1.52h-33.2v-1.52h1.97c2.53,0,4.75-.91,6.67-2.73,1.92-1.82,2.93-4.09,3.03-6.82v-82.02c0-2.63-.76-4.67-2.27-6.14-1.52-1.46-3.49-2.2-5.91-2.2-.51,0-1.01.05-1.52.15l-1.82.15-.3-1.52c5.25-.5,12.3-1.49,21.15-2.96,8.84-1.46,14.33-2.32,16.45-2.58,2.12-.25,4.4-.38,6.82-.38Z"/><path class="cls-1" d="m292.52,155.81c10.81-10.16,24.84-15.24,42.07-15.24s31.26,5.08,42.07,15.24c10.81,10.16,16.22,23.48,16.22,39.95s-5.41,29.79-16.22,39.95c-10.82,10.16-24.84,15.24-42.07,15.24s-31.26-5.08-42.07-15.24c-10.82-10.16-16.22-23.47-16.22-39.95s5.41-29.79,16.22-39.95Zm8.26,76.64c8.54,9.3,19.79,13.95,33.73,13.95s25.19-4.65,33.73-13.95c8.54-9.3,12.81-21.53,12.81-36.69s-4.27-27.39-12.81-36.69c-8.54-9.3-19.79-13.95-33.73-13.95s-25.19,4.65-33.73,13.95c-8.54,9.3-12.81,21.53-12.81,36.69s4.27,27.39,12.81,36.69Z"/><path class="cls-1" d="m436.1,147.39h-9.7v90.36c0,2.63.93,4.88,2.81,6.75,1.87,1.87,4.17,2.81,6.9,2.81h1.82l.15,1.52h-33.2v-1.52h1.97c2.63,0,4.88-.91,6.75-2.73,1.87-1.82,2.85-4.04,2.96-6.67v-84.15c-.1-2.63-1.09-4.88-2.96-6.75-1.87-1.87-4.12-2.8-6.75-2.8h-1.97v-1.52h40.94c9.2,0,16.42,2.55,21.68,7.66,5.25,5.1,7.88,11.73,7.88,19.86s-2.5,15.16-7.51,21.07-11.09,8.87-18.27,8.87c1.52.71,3.31,2.1,5.38,4.17,2.07,2.07,3.92,4.22,5.53,6.44,8.69,12.43,14.35,20.09,16.98,22.97,2.63,2.88,4.5,4.85,5.61,5.91,1.11,1.06,2.32,2.1,3.64,3.11,1.31,1.01,2.63,1.82,3.94,2.43,2.93,1.42,6.06,2.12,9.4,2.12v1.52h-8.34c-4.35,0-8.39-.78-12.13-2.35-3.74-1.57-6.55-3.18-8.41-4.85-1.87-1.67-3.49-3.28-4.85-4.85-1.36-1.57-5.13-6.8-11.3-15.69-6.17-8.89-9.76-13.97-10.76-15.24-1.01-1.26-2.07-2.5-3.18-3.71-3.24-3.44-6.47-5.15-9.7-5.15v-1.52c.81.1,1.87.15,3.18.15s2.93-.05,4.85-.15c12.53-.3,20.42-5.56,23.65-15.77.61-2.02.91-3.92.91-5.69v-3.41c-.2-6.77-1.97-12.23-5.31-16.37-3.34-4.14-7.83-6.37-13.49-6.67-2.43-.1-5.46-.15-9.1-.15Z"/><path class="cls-1" d="m579.38,156.18c0-2.43-.86-4.52-2.58-6.29-1.72-1.77-3.74-2.7-6.06-2.8h-28.81v90.82c.1,2.63,1.08,4.85,2.96,6.67,1.87,1.82,4.12,2.73,6.75,2.73h1.97v1.52h-33.2v-1.52h1.97c2.63,0,4.88-.91,6.75-2.73,1.87-1.82,2.85-3.99,2.96-6.52v-90.97h-28.81c-2.43.1-4.47,1.04-6.14,2.8-1.67,1.77-2.5,3.87-2.5,6.29v2.58l-1.52.15v-19.1c1.52.61,4.14,1.21,7.88,1.82,3.74.61,7.18.91,10.31.91h51.25c4.95,0,9.07-.38,12.36-1.14,3.28-.76,5.28-1.29,5.99-1.59v19.1l-1.52-.15v-2.58Z"/><path class="cls-1" d="m655.34,144.36v12.74h-1.52v-2.27c0-2.02-.71-3.76-2.12-5.23-1.42-1.46-3.18-2.2-5.31-2.2h-31.99v46.85h25.62c2.02-.1,3.74-.86,5.15-2.27,1.41-1.41,2.12-3.13,2.12-5.15v-2.27h1.52v23.96h-1.52v-2.27c0-2.02-.68-3.74-2.05-5.15-1.36-1.41-3.06-2.17-5.08-2.27h-25.77v38.97c0,2.63.96,4.88,2.88,6.75,1.92,1.87,4.19,2.81,6.82,2.81h1.97v1.52h-33.2v-1.52h1.97c2.63,0,4.88-.93,6.75-2.81s2.85-4.12,2.96-6.75v-84.91c0-2.43-.99-4.47-2.96-6.14-1.97-1.67-4.22-2.5-6.75-2.5h-1.82l-.15-1.52h44.42c3.13,0,6.54-.3,10.23-.91,3.69-.61,6.29-1.21,7.81-1.82v4.4Z"/><path class="cls-1" d="m685.05,155.81c10.81-10.16,24.84-15.24,42.07-15.24s31.26,5.08,42.07,15.24c10.81,10.16,16.22,23.48,16.22,39.95s-5.41,29.79-16.22,39.95c-10.82,10.16-24.84,15.24-42.07,15.24s-31.26-5.08-42.07-15.24c-10.82-10.16-16.22-23.47-16.22-39.95s5.41-29.79,16.22-39.95Zm8.26,76.64c8.54,9.3,19.79,13.95,33.73,13.95s25.19-4.65,33.73-13.95c8.54-9.3,12.81-21.53,12.81-36.69s-4.27-27.39-12.81-36.69c-8.54-9.3-19.79-13.95-33.73-13.95s-25.19,4.65-33.73,13.95c-8.54,9.3-12.81,21.53-12.81,36.69s4.27,27.39,12.81,36.69Z"/><path class="cls-1" d="m799.37,247.31c2.63,0,4.88-.93,6.75-2.81s2.85-4.12,2.96-6.75v-84c-.1-2.63-1.09-4.88-2.96-6.75-1.87-1.87-4.12-2.8-6.75-2.8h-1.97v-1.52h33.2v1.52h-1.97c-3.64,0-6.42,1.57-8.34,4.7-.91,1.52-1.36,3.13-1.36,4.85v90.36h21.68c7.48,0,13.19-1.67,17.13-5,3.94-3.34,7.23-8.29,9.86-14.86h1.52l-8.79,24.56h-62.92v-1.52h1.97Z"/><path class="cls-1" d="m882.31,247.31c2.63,0,4.88-.93,6.75-2.81s2.85-4.12,2.96-6.75v-84.15c-.1-2.63-1.09-4.85-2.96-6.67-1.87-1.82-4.12-2.73-6.75-2.73h-1.97v-1.52h33.2v1.52h-1.97c-2.63,0-4.88.91-6.75,2.73-1.87,1.82-2.86,4.04-2.96,6.67v84.15c0,2.63.96,4.88,2.88,6.75,1.92,1.87,4.19,2.81,6.82,2.81h1.97v1.52h-33.2v-1.52h1.97Z"/><path class="cls-1" d="m941.74,155.81c10.81-10.16,24.84-15.24,42.07-15.24s31.26,5.08,42.07,15.24c10.81,10.16,16.22,23.48,16.22,39.95s-5.41,29.79-16.22,39.95c-10.82,10.16-24.84,15.24-42.07,15.24s-31.26-5.08-42.07-15.24c-10.82-10.16-16.22-23.47-16.22-39.95s5.41-29.79,16.22-39.95Zm8.26,76.64c8.54,9.3,19.79,13.95,33.73,13.95s25.19-4.65,33.73-13.95c8.54-9.3,12.81-21.53,12.81-36.69s-4.27-27.39-12.81-36.69c-8.54-9.3-19.79-13.95-33.73-13.95s-25.19,4.65-33.73,13.95c-8.54,9.3-12.81,21.53-12.81,36.69s4.27,27.39,12.81,36.69Z"/><path class="cls-1" d="m218.25,277.99c-76.64,0-138.99-62.35-138.99-138.99S141.61,0,218.25,0s138.99,62.35,138.99,138.99c0,1.95-.04,3.92-.12,5.85l-2.81-.12c.08-1.9.12-3.83.12-5.73C354.44,63.9,293.34,2.81,218.25,2.81S82.06,63.9,82.06,138.99s61.09,136.19,136.19,136.19c32.48,0,63.92-11.62,88.55-32.72l1.83,2.13c-25.14,21.53-57.23,33.39-90.38,33.39Z"/><path class="cls-1" d="m175.21,54.19l-.8-1.95,1.52-.62c49.03-20.11,98.92-32.69,140.47-35.41l.14,2.1c-41.33,2.71-90.98,15.23-139.81,35.26l-1.51.62Z"/><path class="cls-1" d="m44.61,133.67l-1.44-1.54c19.7-18.48,46.07-37.02,76.26-53.61l1.01,1.85c-30.04,16.51-56.26,34.94-75.84,53.3Z"/><path class="cls-1" d="m81.09,238.42c-39.22,0-65.88-10.34-73.75-29.54-2.27-5.54-2.96-11.69-2.05-18.31l2.09.29c-.86,6.24-.21,12.03,1.91,17.22,9.84,23.99,50.9,33.5,109.85,25.45l.29,2.09c-13.79,1.88-26.62,2.81-38.33,2.81Z"/><path class="cls-1" d="m357.39,133.49l-1.34-1.62c39.71-32.73,57.34-64.03,48.38-85.87-6.67-16.26-27.17-25.9-59.28-27.88l.13-2.1c32.97,2.03,54.1,12.12,61.1,29.18,9.33,22.76-8.52,54.94-48.99,88.3Z"/><path class="cls-1" d="m106.33,219.75c-27.4-.39-45.45-7.83-50.82-20.93-6.15-15,4.37-35.71,29.62-58.33,25.07-22.46,61.72-44.19,103.19-61.2,41.47-17.01,82.83-27.27,116.45-28.89,33.86-1.62,55.89,5.73,62.04,20.73,4.52,11.03,0,25.3-13.08,41.28l-1.09-.89c12.73-15.55,17.18-29.34,12.86-39.86-12.3-29.99-91.55-25.98-176.66,8.93-41.33,16.95-77.83,38.6-102.79,60.95-24.77,22.19-35.16,42.34-29.25,56.75,5.15,12.55,22.74,19.68,49.54,20.06l-.02,1.4Z"/><polygon class="cls-1" points="331.97 27.91 328.06 20.76 320.9 16.85 328.06 12.93 331.97 5.78 335.88 12.93 343.04 16.85 335.88 20.76 331.97 27.91"/><polygon class="cls-1" points="158.83 89.08 145.64 70.54 124.11 77.9 142.66 64.72 135.29 43.19 148.48 61.73 170.01 54.37 151.46 67.55 158.83 89.08"/><polygon class="cls-1" points="26.56 178.94 14.11 174.75 6.55 185.49 10.74 173.04 0 165.48 12.45 169.67 20.01 158.93 15.82 171.38 26.56 178.94"/><polygon class="cls-1" points="30.6 146.34 32.16 140.98 30.59 135.63 35.95 137.19 41.3 135.62 39.74 140.97 41.31 146.33 35.96 144.77 30.6 146.34"/></g></svg>