<?xml version="1.0" encoding="UTF-8"?><svg id="Portada" xmlns="http://www.w3.org/2000/svg" viewBox="0 0 1163 449.19"><defs><style>.cls-1{letter-spacing:-.04em;}.cls-2{letter-spacing:-.02em;}.cls-3{letter-spacing:-.02em;}.cls-4{letter-spacing:0em;}.cls-5{letter-spacing:.04em;}.cls-6{stroke-width:1.4px;}.cls-6,.cls-7,.cls-8{fill:none;stroke:#333;stroke-miterlimit:10;}.cls-9{letter-spacing:-.05em;}.cls-10{font-family:Manrope-Light, Manrope;font-size:42.81px;font-weight:300;}.cls-10,.cls-11,.cls-12{fill:#333;}.cls-13{letter-spacing:0em;}.cls-11{font-family:CinzelDecorative-Regular, 'Cinzel Decorative';font-size:151.62px;}.cls-7{stroke-width:2.11px;}.cls-14{letter-spacing:-.01em;}.cls-12{stroke-width:0px;}.cls-8{stroke-width:2.81px;}</style></defs><text class="cls-10" transform="translate(791.25 342.74)"><tspan x="0" y="0">MELANIE LUCE</tspan><tspan class="cls-1" x="284.74" y="0">Y</tspan></text><text class="cls-10" transform="translate(723.54 392.69)"><tspan x="0" y="0">DISEÑADORA U</tspan><tspan class="cls-5" x="293.48" y="0">X</tspan><tspan x="320.43" y="0">/UI</tspan></text><text class="cls-11" transform="translate(232.2 298.58)"><tspan class="cls-13" x="0" y="0">P</tspan><tspan class="cls-3" x="95.52" y="0">o</tspan><tspan class="cls-9" x="221.06" y="0">r</tspan><tspan x="315.36" y="0">t</tspan><tspan class="cls-2" x="409.06" y="0">fo</tspan><tspan class="cls-14" x="613.59" y="0">l</tspan><tspan class="cls-2" x="696.53" y="0">i</tspan><tspan class="cls-4" x="744.74" y="0">o</tspan></text><path class="cls-8" d="m365.21,293.28c-24.06,20.61-55.31,33.06-89.47,33.06-75.99,0-137.59-61.6-137.59-137.59S199.75,51.16,275.74,51.16s137.59,61.6,137.59,137.59c0,1.94-.04,3.87-.12,5.79"/><path class="cls-7" d="m232.3,102.97c.5-.21,1.01-.42,1.52-.62,50.85-20.86,100.17-32.72,140.14-35.34"/><path class="cls-7" d="m101.38,182.66c19.39-18.18,45.38-36.6,76.05-53.45"/><path class="cls-7" d="m176.77,284.33c-57.36,7.84-100.54-.67-110.97-26.09-2.24-5.46-2.85-11.42-1.98-17.76"/><path class="cls-7" d="m402.71,66.82c31.18,1.92,53.15,11.37,60.19,28.53,9.49,23.13-10.16,55.33-48.69,87.08"/><path class="cls-6" d="m163.82,268.8c-26.24-.38-44.7-7.12-50.18-20.5-12.47-30.4,46.82-83.5,132.43-118.61,85.61-35.11,165.11-38.94,177.58-8.54,4.57,11.14-.5,25.33-12.97,40.57"/><polygon class="cls-12" points="389.46 77.67 385.55 70.52 378.39 66.6 385.55 62.69 389.46 55.54 393.37 62.69 400.53 66.6 393.37 70.52 389.46 77.67"/><polygon class="cls-12" points="216.31 138.84 203.13 120.29 181.6 127.66 200.15 114.47 192.78 92.94 205.97 111.49 227.5 104.12 208.95 117.31 216.31 138.84"/><polygon class="cls-12" points="84.05 228.69 71.6 224.5 64.04 235.25 68.23 222.8 57.49 215.23 69.94 219.43 77.5 208.68 73.31 221.13 84.05 228.69"/><polygon class="cls-12" points="88.09 196.1 89.65 190.74 88.08 185.38 93.43 186.95 98.79 185.37 97.23 190.73 98.8 196.08 93.44 194.52 88.09 196.1"/></svg>