<?xml version="1.0" encoding="UTF-8"?><svg id="Capa_2" xmlns="http://www.w3.org/2000/svg" viewBox="0 0 340.89 148.94"><defs><style>.cls-1{fill:#333;stroke-width:0px;}</style></defs><g id="Capa_1-2"><polygon class="cls-1" points="57.62 118.6 52.64 115.62 46.83 115.8 49.82 110.81 49.64 105.01 54.62 107.99 60.43 107.81 57.44 112.8 57.62 118.6"/><polygon class="cls-1" points="51.42 26.81 47.58 26.29 44.07 27.91 44.6 24.08 42.97 20.57 46.81 21.09 50.32 19.47 49.79 23.3 51.42 26.81"/><polygon class="cls-1" points="5.97 83.88 3.63 80.8 0 79.47 3.08 77.13 4.42 73.5 6.76 76.58 10.39 77.91 7.31 80.25 5.97 83.88"/><polygon class="cls-1" points="291.44 135.21 288.99 132.85 285.65 132.19 288.01 129.73 288.68 126.4 291.13 128.76 294.47 129.42 292.11 131.87 291.44 135.21"/><path class="cls-1" d="m97.46,96l4.2-15h-2c-1.33,1.6-2.63,2.67-3.9,3.2-1.27.53-3.63.8-7.1.8h-8.6V3h-2L4.86,94v2h62.2v37.4c-.13,2.93-1.27,5.4-3.4,7.4-2.13,2-4.73,3-7.8,3h-2l-.2,2h39.6v-2h-2.2c-3.07,0-5.93-1.33-8.6-4-1.6-1.47-2.4-3.67-2.4-6.6v-37.2h17.4Zm-30.4-11H19.86l47.2-58.4v58.4Zm7.69,55.01l-2.83,1.89-.06-3.4-1.89-2.83,3.4-.06,2.83-1.89.06,3.4,1.89,2.83-3.4.06Z"/><polygon class="cls-1" points="250.87 27.58 247.13 42.48 258.42 52.69 242.74 48.29 233.32 60.24 237.88 44.97 225.77 35.13 241.26 39.1 250.87 27.58"/><polygon class="cls-1" points="214.3 132.26 212.39 139.87 218.16 145.09 210.14 142.84 205.33 148.94 207.66 141.14 201.47 136.12 209.39 138.15 214.3 132.26"/><polygon class="cls-1" points="329.09 52.53 333.12 59.27 340.89 58.87 333.63 62.95 334.54 70.67 330.68 63.51 322.75 64.33 329.78 60.17 329.09 52.53"/><path class="cls-1" d="m209.76,32.3c-10.47-11.53-24.23-17.3-41.3-17.3-5.58,0-10.81.63-15.68,1.86-3.53.89-6.88,2.1-10.04,3.64-5.82,2.84-11.01,6.77-15.58,11.8-10.47,11.53-15.7,26.7-15.7,45.5s5.23,33.97,15.7,45.5c2.65,2.92,5.52,5.47,8.59,7.65,2.64,1.87,5.44,3.46,8.39,4.78,7.18,3.23,15.28,4.86,24.32,4.86,17.07,0,30.83-5.77,41.3-17.3,10.47-11.53,15.7-26.7,15.7-45.5s-5.23-33.97-15.7-45.5Zm-66.32,16.92l-12.23,1.27,10.84-6.42-1.06-11.77,6.22,10.39,11.98-.61-11.19,6.29,1.41,11.91-5.96-11.05Zm62.72,58.28c-3.54,8.6-8.57,15.27-15.1,20-6.54,4.73-14.07,7.1-22.6,7.1-5.17,0-9.92-.84-14.28-2.5,5.82-2.84,11.01-6.77,15.58-11.8,10.47-11.53,15.7-26.7,15.7-45.5s-5.23-33.97-15.7-45.5c-2.67-2.94-5.55-5.5-8.65-7.69,2.35-.4,4.8-.61,7.35-.61,12.93,0,23.33,5.2,31.2,15.6,7.87,10.4,11.8,24.13,11.8,41.2,0,11.2-1.77,21.1-5.3,29.7Z"/><polygon class="cls-1" points="242.88 100.83 241.72 99.72 240.14 99.4 241.26 98.25 241.57 96.67 242.73 97.78 244.31 98.1 243.19 99.26 242.88 100.83"/><path class="cls-1" d="m328.06,93l4.2-15h-2c-1.33,1.6-2.63,2.67-3.9,3.2-1.27.53-3.63.8-7.1.8h-8.6V0h-2l-73.2,91v2h62.2v37.4c-.13,2.93-1.27,5.4-3.4,7.4-2.13,2-4.73,3-7.8,3h-2l-.2,2h39.6v-2h-2.2c-3.07,0-5.94-1.33-8.6-4-1.6-1.47-2.4-3.67-2.4-6.6v-37.2h17.4Zm-22.51-83.1l.93-1.31.6,1.49,1.31.93-1.49.6-.93,1.31-.6-1.49-1.31-.93,1.49-.6Zm-7.89,72.1h-47.2l47.2-58.4v58.4Zm7.14-59.46l-2.38-4.24-4.51.53,4.18-2.26-.48-4.63,2.43,4.11,4.46-.4-3.93,2.35.23,4.54Z"/><polygon class="cls-1" points="59.87 75.15 61.72 75.12 63.25 74.09 63.29 75.94 64.31 77.48 62.46 77.51 60.93 78.53 60.89 76.69 59.87 75.15"/><polygon class="cls-1" points="62.94 82.75 63.71 81.96 63.92 80.87 64.72 81.64 65.8 81.86 65.03 82.65 64.82 83.73 64.02 82.97 62.94 82.75"/><polygon class="cls-1" points="54.14 82.4 55.26 81.25 55.57 79.67 56.73 80.78 58.31 81.1 57.19 82.26 56.88 83.83 55.72 82.72 54.14 82.4"/><polygon class="cls-1" points="83.14 21.4 84.26 20.25 84.57 18.67 85.73 19.78 87.31 20.1 86.19 21.26 85.88 22.83 84.72 21.72 83.14 21.4"/></g></svg>