<?xml version="1.0" encoding="UTF-8"?><svg id="Capa_2" xmlns="http://www.w3.org/2000/svg" viewBox="0 0 103.5 103.5"><defs><style>.cls-1{stroke-width:.33px;}.cls-1,.cls-2{fill:none;stroke:#333;stroke-miterlimit:10;}.cls-3{fill:#333;stroke-width:0px;}.cls-2{stroke-width:.25px;}</style></defs><g id="Sobre_Mi"><path class="cls-3" d="m72.87,30.59c-6.18-6.18-14.41-9.06-22.5-8.64,2.91,1.09,5.64,2.79,7.97,5.13,8.73,8.73,8.73,22.89,0,31.62-8.73,8.73-22.89,8.73-31.62,0-1.9-1.9-3.38-4.05-4.46-6.35.19,7.32,3.08,14.59,8.67,20.18,11.58,11.58,30.35,11.58,41.93,0s11.58-30.35,0-41.93Z"/><line class="cls-1" x1="51.29" y1="0" x2="51.29" y2="17.1"/><line class="cls-2" x1="59.61" y1="9.47" x2="57.76" y2="17.79"/><line class="cls-1" x1="0" y1="52.21" x2="17.1" y2="52.21"/><line class="cls-1" x1="4.12" y1="71.98" x2="19.91" y2="65.44"/><line class="cls-2" x1="9.68" y1="60.67" x2="18.08" y2="59.2"/><line class="cls-1" x1="15.48" y1="88.67" x2="27.57" y2="76.58"/><line class="cls-2" x1="16.3" y1="76.09" x2="23.49" y2="71.52"/><line class="cls-1" x1="32.37" y1="99.74" x2="38.92" y2="83.94"/><line class="cls-2" x1="28.31" y1="87.8" x2="33.2" y2="80.83"/><line class="cls-1" x1="52.21" y1="103.5" x2="52.21" y2="86.4"/><line class="cls-2" x1="43.9" y1="94.03" x2="45.74" y2="85.71"/><line class="cls-1" x1="71.98" y1="99.38" x2="65.44" y2="83.59"/><line class="cls-2" x1="60.67" y1="93.82" x2="59.2" y2="85.42"/><line class="cls-1" x1="88.67" y1="88.02" x2="76.58" y2="75.93"/><line class="cls-2" x1="76.09" y1="87.2" x2="71.52" y2="80.01"/><line class="cls-1" x1="99.74" y1="71.13" x2="83.94" y2="64.58"/><line class="cls-2" x1="87.8" y1="75.19" x2="80.83" y2="70.3"/><line class="cls-1" x1="103.5" y1="51.29" x2="86.4" y2="51.29"/><line class="cls-2" x1="94.03" y1="59.61" x2="85.71" y2="57.76"/><line class="cls-1" x1="99.38" y1="31.52" x2="83.59" y2="38.06"/><line class="cls-2" x1="93.82" y1="42.83" x2="85.42" y2="44.3"/><line class="cls-1" x1="88.02" y1="14.83" x2="75.93" y2="26.92"/><line class="cls-2" x1="87.2" y1="27.41" x2="80.01" y2="31.98"/><line class="cls-1" x1="71.13" y1="3.76" x2="64.58" y2="19.56"/><line class="cls-2" x1="75.19" y1="15.7" x2="70.3" y2="22.67"/></g></svg>