<?xml version="1.0" encoding="UTF-8"?><svg id="Capa_2" xmlns="http://www.w3.org/2000/svg" viewBox="0 0 297.06 275.5"><defs><style>.cls-1{stroke-width:1.5px;}.cls-1,.cls-2{fill:none;stroke:#333;stroke-miterlimit:10;}.cls-2{stroke-linecap:round;stroke-width:2px;}.cls-3{fill:#333;stroke-width:0px;}</style></defs><g id="Capa_2-2"><polygon class="cls-3" points="70.37 168.55 65.39 165.56 59.58 165.74 62.57 160.76 62.39 154.95 67.37 157.94 73.18 157.76 70.2 162.74 70.37 168.55"/><polygon class="cls-3" points="87.17 182.76 83.34 182.23 79.82 183.86 80.35 180.02 78.72 176.51 82.56 177.04 86.07 175.41 85.54 179.25 87.17 182.76"/><polygon class="cls-3" points="265.2 222.16 262.74 219.8 259.41 219.13 261.77 216.68 262.43 213.34 264.88 215.7 268.22 216.37 265.86 218.82 265.2 222.16"/><polygon class="cls-3" points="116.62 176.53 112.88 191.43 124.17 201.63 108.49 197.23 99.07 209.18 103.63 193.91 91.52 184.08 107.01 188.05 116.62 176.53"/><path class="cls-2" d="m127.13,1c-18.2,0-35.57,3.57-51.46,10.02,2.55-.18,5.12-.27,7.71-.27,60.75,0,110,49.25,110,110s-49.25,110-110,110c-31.4,0-59.73-13.16-79.77-34.26,21.97,46.13,69.02,78.01,123.52,78.01,75.52,0,136.75-61.23,136.75-136.75S202.66,1,127.13,1Z"/><path class="cls-1" d="m256.8,218.99c-23.72,5.21-55.85,4.59-89.97-3.08-13.58-3.05-26.4-6.98-38.12-11.53"/><path class="cls-1" d="m263.12,143.62c.91.59,1.81,1.18,2.69,1.78,21.5,14.58,33.29,31.28,29.95,46.15-2.3,10.25-11.48,18.21-25.37,23.47"/><path class="cls-1" d="m60.31,146.62c-.3-2.67-.18-5.3.4-7.88,6.3-28.04,64.02-38.95,128.93-24.37.53.12,1.06.24,1.59.36.68.16,1.35.31,2.02.47"/></g></svg>