<?xml version="1.0" encoding="UTF-8"?><svg id="Capa_2" xmlns="http://www.w3.org/2000/svg" viewBox="0 0 338 70"><defs><style>.cls-1{fill:#ddd8d3;}.cls-1,.cls-2{stroke-width:0px;}.cls-2{fill:#333;}</style></defs><g id="Capa_1-2"><ellipse class="cls-2" cx="169" cy="35" rx="31" ry="35"/><ellipse class="cls-1" cx="238" cy="35" rx="31" ry="35"/><ellipse class="cls-1" cx="31" cy="35" rx="31" ry="35"/><ellipse class="cls-1" cx="307" cy="35" rx="31" ry="35"/><ellipse class="cls-1" cx="100" cy="35" rx="31" ry="35"/><path class="cls-2" d="m15,35C15,18.59,25,4.82,38.5,1.04c-2.4-.67-4.91-1.04-7.5-1.04C13.88,0,0,15.67,0,35s13.88,35,31,35c2.59,0,5.1-.36,7.5-1.04-13.5-3.79-23.5-17.55-23.5-33.96Z"/><path class="cls-2" d="m102,35c0-12.48,5.79-23.43,14.5-29.63-4.78-3.4-10.43-5.37-16.5-5.37-17.12,0-31,15.67-31,35s13.88,35,31,35c6.07,0,11.72-1.97,16.5-5.37-8.71-6.2-14.5-17.14-14.5-29.63Z"/><path class="cls-2" d="m323,35c0,16.41-10,30.18-23.5,33.96,2.4.67,4.91,1.04,7.5,1.04,17.12,0,31-15.67,31-35S324.12,0,307,0c-2.59,0-5.1.36-7.5,1.04,13.5,3.79,23.5,17.55,23.5,33.96Z"/><path class="cls-2" d="m236,35c0,12.48-5.79,23.43-14.5,29.63,4.78,3.4,10.43,5.37,16.5,5.37,17.12,0,31-15.67,31-35S255.12,0,238,0c-6.07,0-11.72,1.97-16.5,5.37,8.71,6.2,14.5,17.14,14.5,29.63Z"/></g></svg>